<?xml version="1.0" standalone="no"?>
<!DOCTYPE svg PUBLIC "-//W3C//DTD SVG 20010904//EN"
 "http://www.w3.org/TR/2001/REC-SVG-20010904/DTD/svg10.dtd">
<svg version="1.0" xmlns="http://www.w3.org/2000/svg"
 width="300.000000pt" height="300.000000pt" viewBox="0 0 300.000000 300.000000"
 preserveAspectRatio="xMidYMid meet">
<metadata>
Created by potrace 1.10, written by Peter Selinger 2001-2011
</metadata>
<g transform="translate(0.000000,300.000000) scale(0.100000,-0.100000)"
fill="#000000" stroke="none">
<path d="M1235 2979 c-142 -28 -256 -65 -370 -119 -384 -180 -690 -532 -800
-920 -44 -157 -45 -162 -53 -242 -6 -59 -5 -75 4 -67 10 8 21 50 41 158 2 13
9 34 16 45 10 17 13 -7 18 -139 7 -179 22 -235 75 -272 109 -75 252 -65 341
23 l45 46 42 -45 c48 -53 85 -67 175 -67 81 0 137 24 177 74 l29 36 41 -44
c46 -50 91 -67 183 -67 66 -1 111 15 160 57 19 16 36 24 38 19 17 -50 30 -60
85 -69 42 -7 67 -5 100 5 34 11 50 12 78 3 25 -9 80 -9 195 -3 182 10 162 10
279 3 49 -3 93 -1 98 4 6 6 22 5 43 -2 35 -12 126 -13 162 -2 16 5 26 -2 47
-29 39 -51 85 -68 182 -67 87 1 142 17 183 55 46 43 51 71 51 302 0 268 10
280 55 60 24 -115 37 -128 31 -29 -10 157 -94 412 -188 568 -216 358 -534 598
-934 701 -101 27 -257 45 -239 28 6 -5 66 -22 135 -37 69 -15 166 -41 215 -58
367 -124 681 -404 849 -758 71 -151 74 -140 -36 -142 -51 0 -100 0 -108 2 -8
1 -46 3 -83 4 -65 1 -70 -1 -98 -31 -16 -18 -32 -33 -35 -33 -4 0 -24 16 -46
36 -38 34 -42 36 -96 30 -32 -3 -101 -5 -154 -5 -53 0 -106 -4 -117 -11 -21
-10 -21 -9 -20 41 3 73 -18 89 -115 89 -90 0 -116 -18 -116 -83 l0 -42 -82 5
-83 5 -6 44 c-8 59 -27 71 -115 71 -66 0 -74 -2 -93 -26 -17 -21 -21 -41 -21
-94 0 -37 -3 -69 -6 -73 -3 -3 -19 7 -34 23 -40 41 -93 60 -167 60 -93 0 -154
-29 -193 -92 l-17 -28 -33 41 c-44 55 -98 79 -180 78 -79 -1 -117 -14 -164
-56 -38 -35 -40 -35 -51 17 -9 43 -33 91 -54 108 -70 57 -208 73 -291 33 -52
-25 -50 -25 -50 -8 0 23 108 216 152 272 167 213 318 340 538 451 103 52 267
108 375 128 97 18 155 32 162 40 9 9 -105 5 -152 -5z m-794 -912 c64 -34 82
-73 87 -184 l4 -93 -86 0 -86 0 0 73 c0 96 -7 119 -34 115 -21 -3 -21 -7 -24
-226 -2 -195 0 -223 13 -229 28 -10 40 15 43 92 l4 75 85 0 86 0 -5 -83 c-5
-94 -21 -130 -76 -167 -52 -36 -173 -41 -236 -10 -71 34 -88 79 -94 255 -9
264 8 334 93 382 57 32 165 32 226 0z m1160 -124 l0 -138 23 75 23 75 72 3
c72 3 73 3 65 -20 -4 -13 -19 -61 -33 -108 l-27 -85 37 -141 c20 -77 40 -151
44 -162 6 -21 4 -22 -74 -22 -75 0 -81 1 -86 23 -3 12 -14 63 -24 112 l-19 90
-1 -112 -1 -113 -85 0 -85 0 0 330 0 330 85 0 85 0 1 -137z m399 92 l0 -45
-85 0 -85 0 0 45 0 45 85 0 85 0 0 -45z m-1111 -98 c62 -41 74 -86 70 -264 -4
-126 -7 -153 -24 -183 -59 -103 -278 -108 -332 -8 -22 41 -31 284 -14 364 20
89 80 126 193 120 52 -3 77 -9 107 -29z m401 11 c25 -13 55 -39 68 -58 22 -34
23 -41 20 -207 -3 -155 -5 -174 -24 -199 -43 -59 -68 -69 -164 -69 -99 0 -128
13 -165 76 -18 30 -20 52 -20 194 0 142 2 165 21 200 27 53 88 85 164 85 38 0
70 -7 100 -22z m1112 -7 l33 -29 3 -246 3 -246 -85 0 -86 0 0 225 c0 215 -1
225 -19 225 -17 0 -20 -10 -26 -73 -4 -40 -5 -141 -3 -225 l3 -152 -85 0 -85
0 0 270 0 270 88 0 c84 0 88 -1 82 -20 -4 -11 -2 -20 4 -20 6 0 11 4 11 10 0
16 53 39 92 40 28 0 46 -8 70 -29z m258 14 c15 -8 31 -20 33 -27 4 -8 8 -4 12
10 7 20 13 22 86 22 l79 0 0 -257 c0 -298 -3 -312 -80 -350 -35 -18 -61 -23
-122 -23 -118 0 -164 25 -175 94 l-6 36 78 0 c65 0 79 -3 93 -20 22 -26 38
-14 44 36 l6 41 -36 -19 c-20 -10 -50 -18 -67 -18 -39 0 -93 33 -105 66 -14
35 -13 323 1 363 19 55 97 78 159 46z m-660 -265 l0 -270 -85 0 -85 0 0 270 0
270 85 0 85 0 0 -270z m-207 56 c7 -76 -1 -99 -19 -56 -8 18 -14 41 -14 51 0
17 21 72 25 67 2 -2 5 -29 8 -62z m-1308 11 c50 -2 60 -5 60 -20 0 -15 -12
-18 -107 -20 -104 -2 -108 -2 -108 19 0 29 5 32 53 27 23 -2 69 -5 102 -6z"/>
<path d="M750 1690 c0 -173 1 -180 20 -180 19 0 20 7 20 180 0 173 -1 180 -20
180 -19 0 -20 -7 -20 -180z"/>
<path d="M1177 1863 c-4 -3 -7 -82 -7 -175 0 -143 2 -170 15 -175 9 -3 19 -3
22 1 5 4 8 259 4 339 -1 17 -21 23 -34 10z"/>
<path d="M2655 1836 c-8 -43 -2 -242 7 -251 4 -4 14 -5 23 -2 12 5 15 29 15
147 0 132 -1 140 -20 140 -14 0 -21 -9 -25 -34z"/>
<path d="M2970 1349 c-6 -23 -18 -74 -25 -113 -36 -188 -115 -384 -217 -541
-144 -221 -381 -425 -625 -536 -68 -31 -269 -95 -328 -104 -27 -5 -52 -9 -55
-10 -3 -1 -24 -5 -48 -10 -23 -4 -45 -12 -49 -18 -7 -12 142 -3 191 12 17 5
74 22 126 36 147 42 354 146 464 235 120 97 203 179 296 296 142 178 270 495
287 717 7 85 0 99 -17 36z"/>
<path d="M14 1310 c9 -147 93 -402 184 -556 228 -390 610 -657 1052 -735 56
-10 147 -8 120 3 -8 3 -53 14 -100 23 -237 48 -464 145 -635 270 -113 82 -269
244 -347 361 -122 182 -189 344 -239 579 -28 131 -42 152 -35 55z"/>
<path d="M871 1345 c-52 -16 -107 -66 -129 -115 -23 -52 -28 -351 -8 -451 13
-64 21 -79 55 -111 42 -40 96 -59 170 -60 84 0 131 19 184 74 26 28 49 49 50
47 2 -2 9 -17 17 -33 8 -16 33 -41 54 -55 35 -23 49 -26 130 -26 84 0 95 2
138 30 27 17 48 32 48 35 0 3 7 13 15 23 13 18 16 16 57 -26 53 -55 105 -72
201 -64 70 6 100 19 150 65 20 19 27 22 27 10 0 -8 9 -27 21 -42 19 -24 26
-26 100 -26 126 0 119 -22 119 360 0 388 9 362 -130 362 -57 0 -67 -3 -87 -27
-20 -22 -23 -38 -23 -103 l0 -76 -32 32 c-46 44 -97 62 -173 62 -83 0 -130
-19 -178 -73 -35 -40 -38 -41 -49 -22 -37 64 -109 97 -208 96 -67 0 -114 -17
-152 -55 -32 -33 -43 -29 -51 21 -20 120 -175 193 -316 148z m149 -26 c63 -14
116 -57 130 -107 5 -21 11 -72 12 -114 l3 -78 -87 0 -87 0 -3 93 c-3 86 -4 92
-25 95 -32 5 -34 -14 -31 -242 3 -178 5 -200 21 -210 27 -17 37 8 37 92 l0 72
88 0 88 0 -4 -72 c-7 -143 -61 -201 -191 -206 -64 -3 -83 1 -120 20 -84 43
-86 49 -89 302 -4 251 1 274 60 319 54 42 118 53 198 36z m1220 -339 l0 -330
-87 0 -88 0 0 330 0 330 88 0 87 0 0 -330z m-724 194 c65 -48 69 -61 72 -237
3 -152 2 -165 -20 -207 -27 -51 -66 -77 -131 -86 -117 -16 -197 27 -216 117
-13 61 -14 259 -1 313 11 51 38 87 81 109 48 26 176 20 215 -9z m410 5 c26
-12 53 -36 66 -57 21 -35 23 -48 23 -197 0 -171 -6 -195 -57 -241 -53 -49
-181 -57 -250 -17 -58 33 -68 68 -68 245 0 189 10 225 74 263 54 33 150 35
212 4z m-748 -209 c3 -19 -2 -20 -86 -20 -50 0 -97 -3 -106 -6 -12 -5 -16 0
-16 22 l0 29 102 -2 c95 -2 103 -4 106 -23z"/>
<path d="M1392 1101 c-9 -6 -12 -52 -10 -182 3 -156 5 -174 21 -177 16 -3 17
10 17 177 0 99 -4 182 -8 185 -4 2 -13 1 -20 -3z"/>
<path d="M1810 1090 c-12 -23 -13 -320 -1 -339 5 -8 16 -11 25 -8 14 6 16 30
16 181 0 144 -3 175 -15 180 -8 3 -19 -3 -25 -14z"/>
</g>
</svg>
